<?xml version="1.0" standalone="no"?><svg xmlns:xlink="http://www.w3.org/1999/xlink" xmlns="http://www.w3.org/2000/svg" viewBox="0 0 1000 666.6666666666667" preserveAspectRatio="xMaxYMax slice"><g transform="scale(1.0818998160770312)"><rect x="0" y="0" width="924.3000000000001" height="616.2" fill="#000000"/><rect x="30.810000000000002" y="30.810000000000002" width="15.405000000000001" height="15.405000000000001" fill="#000000"/><rect x="30.81" y="30.81" width="7.7" height="7.7" fill="#9c9c9c"/><rect x="38.51" y="30.81" width="7.7" height="7.7" fill="#c9c9c9"/><rect x="30.81" y="38.51" width="7.7" height="7.7" fill="#666564"/><rect x="38.51" y="38.51" width="7.7" height="7.7" fill="#acaba9"/><rect x="107.83500000000001" y="30.810000000000002" width="15.405000000000001" height="15.405000000000001" fill="#000000"/><rect x="107.84" y="30.81" width="7.7" height="7.7" fill="#8b8a88"/><rect x="115.54" y="30.81" width="7.7" height="7.7" fill="#c3c2bf"/><rect x="107.84" y="38.51" width="7.7" height="7.7" fill="#7c7c7c"/><rect x="115.54" y="38.51" width="7.7" height="7.7" fill="#353534"/><rect x="184.86" y="30.810000000000002" width="15.405000000000001" height="15.405000000000001" fill="#000000"/><rect x="184.86" y="30.81" width="7.7" height="7.7" fill="#8b8b8b"/><rect x="192.56" y="30.81" width="7.7" height="7.7" fill="#7a7978"/><rect x="184.86" y="38.51" width="7.7" height="7.7" fill="#181818"/><rect x="192.56" y="38.51" width="7.7" height="7.7" fill="#242424"/><rect x="261.885" y="30.810000000000002" width="15.405000000000001" height="15.405000000000001" fill="#000000"/><rect x="261.89" y="30.81" width="7.7" height="7.7" fill="#6a6a6a"/><rect x="269.59" y="30.81" width="7.7" height="7.7" fill="#dfdfdf"/><rect x="261.89" y="38.51" width="7.7" height="7.7" fill="#d5d3d1"/><rect x="269.59" y="38.51" width="7.7" height="7.7" fill="#b0afad"/><rect x="338.91" y="30.810000000000002" width="15.405000000000001" height="15.405000000000001" fill="#000000"/><rect x="338.91" y="30.81" width="7.7" height="7.7" fill="#c7c6c4"/><rect x="346.61" y="30.81" width="7.7" height="7.7" fill="#767574"/><rect x="338.91" y="38.51" width="7.7" height="7.7" fill="#fdfbf8"/><rect x="346.61" y="38.51" width="7.7" height="7.7" fill="#292929"/><rect x="415.935" y="30.810000000000002" width="15.405000000000001" height="15.405000000000001" fill="#000000"/><rect x="415.94" y="30.81" width="7.7" height="7.7" fill="#000000"/><rect x="423.64" y="30.81" width="7.7" height="7.7" fill="#b8b8b8"/><rect x="415.94" y="38.51" width="7.7" height="7.7" fill="#8e8e8e"/><rect x="423.64" y="38.51" width="7.7" height="7.7" fill="#eae8e5"/><rect x="492.96000000000004" y="30.810000000000002" width="15.405000000000001" height="15.405000000000001" fill="#000000"/><rect x="492.96" y="30.81" width="7.7" height="7.7" fill="#e6e6e6"/><rect x="500.66" y="30.81" width="7.7" height="7.7" fill="#d9d7d5"/><rect x="492.96" y="38.51" width="7.7" height="7.7" fill="#8a8a8a"/><rect x="500.66" y="38.51" width="7.7" height="7.7" fill="#959492"/><rect x="569.9850000000001" y="30.810000000000002" width="15.405000000000001" height="15.405000000000001" fill="#000000"/><rect x="569.99" y="30.81" width="7.7" height="7.7" fill="#a5a4a2"/><rect x="577.69" y="30.81" width="7.7" height="7.7" fill="#808080"/><rect x="569.99" y="38.51" width="7.7" height="7.7" fill="#a8a8a8"/><rect x="577.69" y="38.51" width="7.7" height="7.7" fill="#010101"/><rect x="647.01" y="30.810000000000002" width="15.405000000000001" height="15.405000000000001" fill="#000000"/><rect x="647.01" y="30.81" width="7.7" height="7.7" fill="#222221"/><rect x="654.71" y="30.81" width="7.7" height="7.7" fill="#8d8c8b"/><rect x="647.01" y="38.51" width="7.7" height="7.7" fill="#e4e3e0"/><rect x="654.71" y="38.51" width="7.7" height="7.7" fill="#060606"/><rect x="724.0350000000001" y="30.810000000000002" width="15.405000000000001" height="15.405000000000001" fill="#000000"/><rect x="724.04" y="30.81" width="7.7" height="7.7" fill="#a5a5a5"/><rect x="731.74" y="30.81" width="7.7" height="7.7" fill="#303030"/><rect x="724.04" y="38.51" width="7.7" height="7.7" fill="#a0a0a0"/><rect x="731.74" y="38.51" width="7.7" height="7.7" fill="#454443"/><rect x="801.06" y="30.810000000000002" width="15.405000000000001" height="15.405000000000001" fill="#000000"/><rect x="801.06" y="30.81" width="7.7" height="7.7" fill="#090909"/><rect x="808.76" y="30.81" width="7.7" height="7.7" fill="#434242"/><rect x="801.06" y="38.51" width="7.7" height="7.7" fill="#202020"/><rect x="808.76" y="38.51" width="7.7" height="7.7" fill="#717171"/><rect x="878.085" y="30.810000000000002" width="15.405000000000001" height="15.405000000000001" fill="#000000"/><rect x="878.09" y="30.81" width="7.7" height="7.7" fill="#060606"/><rect x="885.79" y="30.81" width="7.7" height="7.7" fill="#070707"/><rect x="878.09" y="38.51" width="7.7" height="7.7" fill="#e3e3e3"/><rect x="885.79" y="38.51" width="7.7" height="7.7" fill="#bcbcbc"/><rect x="30.810000000000002" y="107.83500000000001" width="15.405000000000001" height="15.405000000000001" fill="#000000"/><rect x="30.81" y="107.84" width="7.7" height="7.7" fill="#1b1b1b"/><rect x="38.51" y="107.84" width="7.7" height="7.7" fill="#5c5b5a"/><rect x="30.81" y="115.54" width="7.7" height="7.7" fill="#797877"/><rect x="38.51" y="115.54" width="7.7" height="7.7" fill="#272727"/><rect x="107.83500000000001" y="107.83500000000001" width="15.405000000000001" height="15.405000000000001" fill="#000000"/><rect x="107.84" y="107.84" width="7.7" height="7.7" fill="#939393"/><rect x="115.54" y="107.84" width="7.7" height="7.7" fill="#444444"/><rect x="107.84" y="115.54" width="7.7" height="7.7" fill="#e8e6e4"/><rect x="115.54" y="115.54" width="7.7" height="7.7" fill="#a4a3a1"/><rect x="184.86" y="107.83500000000001" width="15.405000000000001" height="15.405000000000001" fill="#000000"/><rect x="184.86" y="107.84" width="7.7" height="7.7" fill="#3a3939"/><rect x="192.56" y="107.84" width="7.7" height="7.7" fill="#777777"/><rect x="184.86" y="115.54" width="7.7" height="7.7" fill="#1b1b1b"/><rect x="192.56" y="115.54" width="7.7" height="7.7" fill="#bebdba"/><rect x="261.885" y="107.83500000000001" width="15.405000000000001" height="15.405000000000001" fill="#000000"/><rect x="261.89" y="107.84" width="7.7" height="7.7" fill="#adadad"/><rect x="269.59" y="107.84" width="7.7" height="7.7" fill="#4b4b4b"/><rect x="261.89" y="115.54" width="7.7" height="7.7" fill="#202020"/><rect x="269.59" y="115.54" width="7.7" height="7.7" fill="#2c2c2c"/><rect x="338.91" y="107.83500000000001" width="15.405000000000001" height="15.405000000000001" fill="#000000"/><rect x="338.91" y="107.84" width="7.7" height="7.7" fill="#faf8f5"/><rect x="346.61" y="107.84" width="7.7" height="7.7" fill="#c8c7c4"/><rect x="338.91" y="115.54" width="7.7" height="7.7" fill="#d2d2d2"/><rect x="346.61" y="115.54" width="7.7" height="7.7" fill="#787876"/><rect x="415.935" y="107.83500000000001" width="15.405000000000001" height="15.405000000000001" fill="#000000"/><rect x="415.94" y="107.84" width="7.7" height="7.7" fill="#323131"/><rect x="423.64" y="107.84" width="7.7" height="7.7" fill="#cecece"/><rect x="415.94" y="115.54" width="7.7" height="7.7" fill="#f9f7f4"/><rect x="423.64" y="115.54" width="7.7" height="7.7" fill="#c6c5c2"/><rect x="492.96000000000004" y="107.83500000000001" width="15.405000000000001" height="15.405000000000001" fill="#000000"/><rect x="492.96" y="107.84" width="7.7" height="7.7" fill="#a7a6a4"/><rect x="500.66" y="107.84" width="7.7" height="7.7" fill="#0c0c0c"/><rect x="492.96" y="115.54" width="7.7" height="7.7" fill="#676665"/><rect x="500.66" y="115.54" width="7.7" height="7.7" fill="#f7f5f3"/><rect x="569.9850000000001" y="107.83500000000001" width="15.405000000000001" height="15.405000000000001" fill="#000000"/><rect x="569.99" y="107.84" width="7.7" height="7.7" fill="#c0c0c0"/><rect x="577.69" y="107.84" width="7.7" height="7.7" fill="#a8a6a4"/><rect x="569.99" y="115.54" width="7.7" height="7.7" fill="#e2e1de"/><rect x="577.69" y="115.54" width="7.7" height="7.7" fill="#5d5c5b"/><rect x="647.01" y="107.83500000000001" width="15.405000000000001" height="15.405000000000001" fill="#000000"/><rect x="647.01" y="107.84" width="7.7" height="7.7" fill="#1e1d1d"/><rect x="654.71" y="107.84" width="7.7" height="7.7" fill="#e8e8e8"/><rect x="647.01" y="115.54" width="7.7" height="7.7" fill="#f0f0f0"/><rect x="654.71" y="115.54" width="7.7" height="7.7" fill="#b1afad"/><rect x="724.0350000000001" y="107.83500000000001" width="15.405000000000001" height="15.405000000000001" fill="#000000"/><rect x="724.04" y="107.84" width="7.7" height="7.7" fill="#0c0c0c"/><rect x="731.74" y="107.84" width="7.7" height="7.7" fill="#2a2a2a"/><rect x="724.04" y="115.54" width="7.7" height="7.7" fill="#222222"/><rect x="731.74" y="115.54" width="7.7" height="7.7" fill="#3d3c3c"/><rect x="801.06" y="107.83500000000001" width="15.405000000000001" height="15.405000000000001" fill="#000000"/><rect x="801.06" y="107.84" width="7.7" height="7.7" fill="#e8e7e4"/><rect x="808.76" y="107.84" width="7.7" height="7.7" fill="#9c9c9c"/><rect x="801.06" y="115.54" width="7.7" height="7.7" fill="#ebe9e6"/><rect x="808.76" y="115.54" width="7.7" height="7.7" fill="#a5a5a5"/><rect x="878.085" y="107.83500000000001" width="15.405000000000001" height="15.405000000000001" fill="#000000"/><rect x="878.09" y="107.84" width="7.7" height="7.7" fill="#3b3b3a"/><rect x="885.79" y="107.84" width="7.7" height="7.7" fill="#111111"/><rect x="878.09" y="115.54" width="7.7" height="7.7" fill="#444342"/><rect x="885.79" y="115.54" width="7.7" height="7.7" fill="#4a4a4a"/><rect x="30.810000000000002" y="184.86" width="15.405000000000001" height="15.405000000000001" fill="#000000"/><rect x="30.81" y="184.86" width="7.7" height="7.7" fill="#eeeeee"/><rect x="38.51" y="184.86" width="7.7" height="7.7" fill="#646464"/><rect x="30.81" y="192.56" width="7.7" height="7.7" fill="#181717"/><rect x="38.51" y="192.56" width="7.7" height="7.7" fill="#bcbcbc"/><rect x="107.83500000000001" y="184.86" width="15.405000000000001" height="15.405000000000001" fill="#000000"/><rect x="107.84" y="184.86" width="7.7" height="7.7" fill="#d7d7d7"/><rect x="115.54" y="184.86" width="7.7" height="7.7" fill="#777777"/><rect x="107.84" y="192.56" width="7.7" height="7.7" fill="#d1d1d1"/><rect x="115.54" y="192.56" width="7.7" height="7.7" fill="#bcbcbc"/><rect x="184.86" y="184.86" width="15.405000000000001" height="15.405000000000001" fill="#000000"/><rect x="184.86" y="184.86" width="7.7" height="7.7" fill="#9e9d9b"/><rect x="192.56" y="184.86" width="7.7" height="7.7" fill="#8e8d8b"/><rect x="184.86" y="192.56" width="7.7" height="7.7" fill="#8f8f8f"/><rect x="192.56" y="192.56" width="7.7" height="7.7" fill="#9d9d9d"/><rect x="261.885" y="184.86" width="15.405000000000001" height="15.405000000000001" fill="#000000"/><rect x="261.89" y="184.86" width="7.7" height="7.7" fill="#a6a6a6"/><rect x="269.59" y="184.86" width="7.7" height="7.7" fill="#ecebe8"/><rect x="261.89" y="192.56" width="7.7" height="7.7" fill="#e2e2e2"/><rect x="269.59" y="192.56" width="7.7" height="7.7" fill="#c6c6c6"/><rect x="338.91" y="184.86" width="15.405000000000001" height="15.405000000000001" fill="#000000"/><rect x="338.91" y="184.86" width="7.7" height="7.7" fill="#fcfaf7"/><rect x="346.61" y="184.86" width="7.7" height="7.7" fill="#8c8c8c"/><rect x="338.91" y="192.56" width="7.7" height="7.7" fill="#cbcbcb"/><rect x="346.61" y="192.56" width="7.7" height="7.7" fill="#fcfaf7"/><rect x="415.935" y="184.86" width="15.405000000000001" height="15.405000000000001" fill="#000000"/><rect x="415.94" y="184.86" width="7.7" height="7.7" fill="#dddddd"/><rect x="423.64" y="184.86" width="7.7" height="7.7" fill="#737373"/><rect x="415.94" y="192.56" width="7.7" height="7.7" fill="#c9c9c9"/><rect x="423.64" y="192.56" width="7.7" height="7.7" fill="#111111"/><rect x="492.96000000000004" y="184.86" width="15.405000000000001" height="15.405000000000001" fill="#000000"/><rect x="492.96" y="184.86" width="7.7" height="7.7" fill="#aeaeae"/><rect x="500.66" y="184.86" width="7.7" height="7.7" fill="#b6b6b6"/><rect x="492.96" y="192.56" width="7.7" height="7.7" fill="#acacac"/><rect x="500.66" y="192.56" width="7.7" height="7.7" fill="#dcdcdc"/><rect x="569.9850000000001" y="184.86" width="15.405000000000001" height="15.405000000000001" fill="#000000"/><rect x="569.99" y="184.86" width="7.7" height="7.7" fill="#bcbbb8"/><rect x="577.69" y="184.86" width="7.7" height="7.7" fill="#403f3f"/><rect x="569.99" y="192.56" width="7.7" height="7.7" fill="#060606"/><rect x="577.69" y="192.56" width="7.7" height="7.7" fill="#d5d3d0"/><rect x="647.01" y="184.86" width="15.405000000000001" height="15.405000000000001" fill="#000000"/><rect x="647.01" y="184.86" width="7.7" height="7.7" fill="#131313"/><rect x="654.71" y="184.86" width="7.7" height="7.7" fill="#212120"/><rect x="647.01" y="192.56" width="7.7" height="7.7" fill="#454544"/><rect x="654.71" y="192.56" width="7.7" height="7.7" fill="#cecece"/><rect x="724.0350000000001" y="184.86" width="15.405000000000001" height="15.405000000000001" fill="#000000"/><rect x="724.04" y="184.86" width="7.7" height="7.7" fill="#d0cfcc"/><rect x="731.74" y="184.86" width="7.7" height="7.7" fill="#acacac"/><rect x="724.04" y="192.56" width="7.7" height="7.7" fill="#8e8e8e"/><rect x="731.74" y="192.56" width="7.7" height="7.7" fill="#e2e2e2"/><rect x="801.06" y="184.86" width="15.405000000000001" height="15.405000000000001" fill="#000000"/><rect x="801.06" y="184.86" width="7.7" height="7.7" fill="#343434"/><rect x="808.76" y="184.86" width="7.7" height="7.7" fill="#4c4c4c"/><rect x="801.06" y="192.56" width="7.7" height="7.7" fill="#555453"/><rect x="808.76" y="192.56" width="7.7" height="7.7" fill="#010101"/><rect x="878.085" y="184.86" width="15.405000000000001" height="15.405000000000001" fill="#000000"/><rect x="878.09" y="184.86" width="7.7" height="7.7" fill="#9a9a9a"/><rect x="885.79" y="184.86" width="7.7" height="7.7" fill="#171717"/><rect x="878.09" y="192.56" width="7.7" height="7.7" fill="#393939"/><rect x="885.79" y="192.56" width="7.7" height="7.7" fill="#e2e2e2"/><rect x="30.810000000000002" y="261.885" width="15.405000000000001" height="15.405000000000001" fill="#000000"/><rect x="30.81" y="261.89" width="7.7" height="7.7" fill="#7c7c7c"/><rect x="38.51" y="261.89" width="7.7" height="7.7" fill="#9c9a99"/><rect x="30.81" y="269.59" width="7.7" height="7.7" fill="#595959"/><rect x="38.51" y="269.59" width="7.7" height="7.7" fill="#5b5a59"/><rect x="107.83500000000001" y="261.885" width="15.405000000000001" height="15.405000000000001" fill="#000000"/><rect x="107.84" y="261.89" width="7.7" height="7.7" fill="#bebebe"/><rect x="115.54" y="261.89" width="7.7" height="7.7" fill="#727272"/><rect x="107.84" y="269.59" width="7.7" height="7.7" fill="#4c4b4b"/><rect x="115.54" y="269.59" width="7.7" height="7.7" fill="#070707"/><rect x="184.86" y="261.885" width="15.405000000000001" height="15.405000000000001" fill="#000000"/><rect x="184.86" y="261.89" width="7.7" height="7.7" fill="#575655"/><rect x="192.56" y="261.89" width="7.7" height="7.7" fill="#949392"/><rect x="184.86" y="269.59" width="7.7" height="7.7" fill="#999999"/><rect x="192.56" y="269.59" width="7.7" height="7.7" fill="#030303"/><rect x="261.885" y="261.885" width="15.405000000000001" height="15.405000000000001" fill="#000000"/><rect x="261.89" y="261.89" width="7.7" height="7.7" fill="#313130"/><rect x="269.59" y="261.89" width="7.7" height="7.7" fill="#141414"/><rect x="261.89" y="269.59" width="7.7" height="7.7" fill="#848484"/><rect x="269.59" y="269.59" width="7.7" height="7.7" fill="#3b3b3b"/><rect x="338.91" y="261.885" width="15.405000000000001" height="15.405000000000001" fill="#000000"/><rect x="338.91" y="261.89" width="7.7" height="7.7" fill="#6a6968"/><rect x="346.61" y="261.89" width="7.7" height="7.7" fill="#c3c1bf"/><rect x="338.91" y="269.59" width="7.7" height="7.7" fill="#dad8d6"/><rect x="346.61" y="269.59" width="7.7" height="7.7" fill="#3d3c3c"/><rect x="415.935" y="261.885" width="15.405000000000001" height="15.405000000000001" fill="#000000"/><rect x="415.94" y="261.89" width="7.7" height="7.7" fill="#848484"/><rect x="423.64" y="261.89" width="7.7" height="7.7" fill="#ebebeb"/><rect x="415.94" y="269.59" width="7.7" height="7.7" fill="#bbbbbb"/><rect x="423.64" y="269.59" width="7.7" height="7.7" fill="#a5a5a5"/><rect x="492.96000000000004" y="261.885" width="15.405000000000001" height="15.405000000000001" fill="#000000"/><rect x="492.96" y="261.89" width="7.7" height="7.7" fill="#7b7b7b"/><rect x="500.66" y="261.89" width="7.7" height="7.7" fill="#c3c3c3"/><rect x="492.96" y="269.59" width="7.7" height="7.7" fill="#d2d1ce"/><rect x="500.66" y="269.59" width="7.7" height="7.7" fill="#1d1d1d"/><rect x="569.9850000000001" y="261.885" width="15.405000000000001" height="15.405000000000001" fill="#000000"/><rect x="569.99" y="261.89" width="7.7" height="7.7" fill="#161615"/><rect x="577.69" y="261.89" width="7.7" height="7.7" fill="#aaaaaa"/><rect x="569.99" y="269.59" width="7.7" height="7.7" fill="#d0d0d0"/><rect x="577.69" y="269.59" width="7.7" height="7.7" fill="#d0d0d0"/><rect x="647.01" y="261.885" width="15.405000000000001" height="15.405000000000001" fill="#000000"/><rect x="647.01" y="261.89" width="7.7" height="7.7" fill="#0f0f0f"/><rect x="654.71" y="261.89" width="7.7" height="7.7" fill="#737371"/><rect x="647.01" y="269.59" width="7.7" height="7.7" fill="#908f8e"/><rect x="654.71" y="269.59" width="7.7" height="7.7" fill="#070707"/><rect x="724.0350000000001" y="261.885" width="15.405000000000001" height="15.405000000000001" fill="#000000"/><rect x="724.04" y="261.89" width="7.7" height="7.7" fill="#dadada"/><rect x="731.74" y="261.89" width="7.7" height="7.7" fill="#2a2a2a"/><rect x="724.04" y="269.59" width="7.7" height="7.7" fill="#a1a09e"/><rect x="731.74" y="269.59" width="7.7" height="7.7" fill="#eceae8"/><rect x="801.06" y="261.885" width="15.405000000000001" height="15.405000000000001" fill="#000000"/><rect x="801.06" y="261.89" width="7.7" height="7.7" fill="#181817"/><rect x="808.76" y="261.89" width="7.7" height="7.7" fill="#929292"/><rect x="801.06" y="269.59" width="7.7" height="7.7" fill="#6d6c6a"/><rect x="808.76" y="269.59" width="7.7" height="7.7" fill="#d3d3d3"/><rect x="878.085" y="261.885" width="15.405000000000001" height="15.405000000000001" fill="#000000"/><rect x="878.09" y="261.89" width="7.7" height="7.7" fill="#606060"/><rect x="885.79" y="261.89" width="7.7" height="7.7" fill="#555453"/><rect x="878.09" y="269.59" width="7.7" height="7.7" fill="#707070"/><rect x="885.79" y="269.59" width="7.7" height="7.7" fill="#050505"/><rect x="30.810000000000002" y="338.91" width="15.405000000000001" height="15.405000000000001" fill="#000000"/><rect x="30.81" y="338.91" width="7.7" height="7.7" fill="#949391"/><rect x="38.51" y="338.91" width="7.7" height="7.7" fill="#2d2d2c"/><rect x="30.81" y="346.61" width="7.7" height="7.7" fill="#262626"/><rect x="38.51" y="346.61" width="7.7" height="7.7" fill="#e1e1e1"/><rect x="107.83500000000001" y="338.91" width="15.405000000000001" height="15.405000000000001" fill="#000000"/><rect x="107.84" y="338.91" width="7.7" height="7.7" fill="#575757"/><rect x="115.54" y="338.91" width="7.7" height="7.7" fill="#fefcf9"/><rect x="107.84" y="346.61" width="7.7" height="7.7" fill="#2c2c2c"/><rect x="115.54" y="346.61" width="7.7" height="7.7" fill="#090808"/><rect x="184.86" y="338.91" width="15.405000000000001" height="15.405000000000001" fill="#000000"/><rect x="184.86" y="338.91" width="7.7" height="7.7" fill="#757575"/><rect x="192.56" y="338.91" width="7.7" height="7.7" fill="#6e6d6c"/><rect x="184.86" y="346.61" width="7.7" height="7.7" fill="#cac8c6"/><rect x="192.56" y="346.61" width="7.7" height="7.7" fill="#2a2a2a"/><rect x="261.885" y="338.91" width="15.405000000000001" height="15.405000000000001" fill="#000000"/><rect x="261.89" y="338.91" width="7.7" height="7.7" fill="#c0bfbc"/><rect x="269.59" y="338.91" width="7.7" height="7.7" fill="#6c6b6a"/><rect x="261.89" y="346.61" width="7.7" height="7.7" fill="#7f7f7f"/><rect x="269.59" y="346.61" width="7.7" height="7.7" fill="#d9d9d9"/><rect x="338.91" y="338.91" width="15.405000000000001" height="15.405000000000001" fill="#000000"/><rect x="338.91" y="338.91" width="7.7" height="7.7" fill="#d3d1cf"/><rect x="346.61" y="338.91" width="7.7" height="7.7" fill="#5f5e5d"/><rect x="338.91" y="346.61" width="7.7" height="7.7" fill="#454545"/><rect x="346.61" y="346.61" width="7.7" height="7.7" fill="#9c9b99"/><rect x="415.935" y="338.91" width="15.405000000000001" height="15.405000000000001" fill="#000000"/><rect x="415.94" y="338.91" width="7.7" height="7.7" fill="#3f3f3f"/><rect x="423.64" y="338.91" width="7.7" height="7.7" fill="#f0efec"/><rect x="415.94" y="346.61" width="7.7" height="7.7" fill="#363636"/><rect x="423.64" y="346.61" width="7.7" height="7.7" fill="#565655"/><rect x="492.96000000000004" y="338.91" width="15.405000000000001" height="15.405000000000001" fill="#000000"/><rect x="492.96" y="338.91" width="7.7" height="7.7" fill="#605f5e"/><rect x="500.66" y="338.91" width="7.7" height="7.7" fill="#908e8d"/><rect x="492.96" y="346.61" width="7.7" height="7.7" fill="#464544"/><rect x="500.66" y="346.61" width="7.7" height="7.7" fill="#f4f2f0"/><rect x="569.9850000000001" y="338.91" width="15.405000000000001" height="15.405000000000001" fill="#000000"/><rect x="569.99" y="338.91" width="7.7" height="7.7" fill="#8a8a8a"/><rect x="577.69" y="338.91" width="7.7" height="7.7" fill="#070707"/><rect x="569.99" y="346.61" width="7.7" height="7.7" fill="#afafaf"/><rect x="577.69" y="346.61" width="7.7" height="7.7" fill="#898989"/><rect x="647.01" y="338.91" width="15.405000000000001" height="15.405000000000001" fill="#000000"/><rect x="647.01" y="338.91" width="7.7" height="7.7" fill="#595857"/><rect x="654.71" y="338.91" width="7.7" height="7.7" fill="#6a6a6a"/><rect x="647.01" y="346.61" width="7.7" height="7.7" fill="#a9a7a5"/><rect x="654.71" y="346.61" width="7.7" height="7.7" fill="#b6b6b6"/><rect x="724.0350000000001" y="338.91" width="15.405000000000001" height="15.405000000000001" fill="#000000"/><rect x="724.04" y="338.91" width="7.7" height="7.7" fill="#313130"/><rect x="731.74" y="338.91" width="7.7" height="7.7" fill="#535251"/><rect x="724.04" y="346.61" width="7.7" height="7.7" fill="#b2b1af"/><rect x="731.74" y="346.61" width="7.7" height="7.7" fill="#e4e2e0"/><rect x="801.06" y="338.91" width="15.405000000000001" height="15.405000000000001" fill="#000000"/><rect x="801.06" y="338.91" width="7.7" height="7.7" fill="#c7c5c3"/><rect x="808.76" y="338.91" width="7.7" height="7.7" fill="#d8d8d8"/><rect x="801.06" y="346.61" width="7.7" height="7.7" fill="#868686"/><rect x="808.76" y="346.61" width="7.7" height="7.7" fill="#4a4a4a"/><rect x="878.085" y="338.91" width="15.405000000000001" height="15.405000000000001" fill="#000000"/><rect x="878.09" y="338.91" width="7.7" height="7.7" fill="#b1b0ae"/><rect x="885.79" y="338.91" width="7.7" height="7.7" fill="#cbcbcb"/><rect x="878.09" y="346.61" width="7.7" height="7.7" fill="#e0e0e0"/><rect x="885.79" y="346.61" width="7.7" height="7.7" fill="#9e9c9a"/><rect x="30.810000000000002" y="415.935" width="15.405000000000001" height="15.405000000000001" fill="#000000"/><rect x="30.81" y="415.94" width="7.7" height="7.7" fill="#8a8987"/><rect x="38.51" y="415.94" width="7.7" height="7.7" fill="#343433"/><rect x="30.81" y="423.64" width="7.7" height="7.7" fill="#8e8e8e"/><rect x="38.51" y="423.64" width="7.7" height="7.7" fill="#454545"/><rect x="107.83500000000001" y="415.935" width="15.405000000000001" height="15.405000000000001" fill="#000000"/><rect x="107.84" y="415.94" width="7.7" height="7.7" fill="#393938"/><rect x="115.54" y="415.94" width="7.7" height="7.7" fill="#929292"/><rect x="107.84" y="423.64" width="7.7" height="7.7" fill="#060606"/><rect x="115.54" y="423.64" width="7.7" height="7.7" fill="#b4b4b4"/><rect x="184.86" y="415.935" width="15.405000000000001" height="15.405000000000001" fill="#000000"/><rect x="184.86" y="415.94" width="7.7" height="7.7" fill="#c1c1c1"/><rect x="192.56" y="415.94" width="7.7" height="7.7" fill="#d0cecc"/><rect x="184.86" y="423.64" width="7.7" height="7.7" fill="#bdbdbd"/><rect x="192.56" y="423.64" width="7.7" height="7.7" fill="#abaaa8"/><rect x="261.885" y="415.935" width="15.405000000000001" height="15.405000000000001" fill="#000000"/><rect x="261.89" y="415.94" width="7.7" height="7.7" fill="#1e1e1e"/><rect x="269.59" y="415.94" width="7.7" height="7.7" fill="#090909"/><rect x="261.89" y="423.64" width="7.7" height="7.7" fill="#1f1f1f"/><rect x="269.59" y="423.64" width="7.7" height="7.7" fill="#d4d4d4"/><rect x="338.91" y="415.935" width="15.405000000000001" height="15.405000000000001" fill="#000000"/><rect x="338.91" y="415.94" width="7.7" height="7.7" fill="#565554"/><rect x="346.61" y="415.94" width="7.7" height="7.7" fill="#8c8c8c"/><rect x="338.91" y="423.64" width="7.7" height="7.7" fill="#1a1a1a"/><rect x="346.61" y="423.64" width="7.7" height="7.7" fill="#aaa9a7"/><rect x="415.935" y="415.935" width="15.405000000000001" height="15.405000000000001" fill="#000000"/><rect x="415.94" y="415.94" width="7.7" height="7.7" fill="#5c5c5c"/><rect x="423.64" y="415.94" width="7.7" height="7.7" fill="#202020"/><rect x="415.94" y="423.64" width="7.7" height="7.7" fill="#a8a7a5"/><rect x="423.64" y="423.64" width="7.7" height="7.7" fill="#bbb9b7"/><rect x="492.96000000000004" y="415.935" width="15.405000000000001" height="15.405000000000001" fill="#000000"/><rect x="492.96" y="415.94" width="7.7" height="7.7" fill="#090909"/><rect x="500.66" y="415.94" width="7.7" height="7.7" fill="#efeeeb"/><rect x="492.96" y="423.64" width="7.7" height="7.7" fill="#181818"/><rect x="500.66" y="423.64" width="7.7" height="7.7" fill="#141413"/><rect x="569.9850000000001" y="415.935" width="15.405000000000001" height="15.405000000000001" fill="#000000"/><rect x="569.99" y="415.94" width="7.7" height="7.7" fill="#656463"/><rect x="577.69" y="415.94" width="7.7" height="7.7" fill="#dedede"/><rect x="569.99" y="423.64" width="7.7" height="7.7" fill="#dadada"/><rect x="577.69" y="423.64" width="7.7" height="7.7" fill="#393938"/><rect x="647.01" y="415.935" width="15.405000000000001" height="15.405000000000001" fill="#000000"/><rect x="647.01" y="415.94" width="7.7" height="7.7" fill="#484847"/><rect x="654.71" y="415.94" width="7.7" height="7.7" fill="#6b6b6b"/><rect x="647.01" y="423.64" width="7.7" height="7.7" fill="#151414"/><rect x="654.71" y="423.64" width="7.7" height="7.7" fill="#adadad"/><rect x="724.0350000000001" y="415.935" width="15.405000000000001" height="15.405000000000001" fill="#000000"/><rect x="724.04" y="415.94" width="7.7" height="7.7" fill="#646362"/><rect x="731.74" y="415.94" width="7.7" height="7.7" fill="#1b1b1a"/><rect x="724.04" y="423.64" width="7.7" height="7.7" fill="#81807e"/><rect x="731.74" y="423.64" width="7.7" height="7.7" fill="#aba9a7"/><rect x="801.06" y="415.935" width="15.405000000000001" height="15.405000000000001" fill="#000000"/><rect x="801.06" y="415.94" width="7.7" height="7.7" fill="#4d4d4d"/><rect x="808.76" y="415.94" width="7.7" height="7.7" fill="#4a4a49"/><rect x="801.06" y="423.64" width="7.7" height="7.7" fill="#565655"/><rect x="808.76" y="423.64" width="7.7" height="7.7" fill="#eae8e6"/><rect x="878.085" y="415.935" width="15.405000000000001" height="15.405000000000001" fill="#000000"/><rect x="878.09" y="415.94" width="7.7" height="7.7" fill="#757473"/><rect x="885.79" y="415.94" width="7.7" height="7.7" fill="#ebe9e7"/><rect x="878.09" y="423.64" width="7.7" height="7.7" fill="#f9f7f4"/><rect x="885.79" y="423.64" width="7.7" height="7.7" fill="#dadada"/><rect x="30.810000000000002" y="492.96000000000004" width="15.405000000000001" height="15.405000000000001" fill="#000000"/><rect x="30.81" y="492.96" width="7.7" height="7.7" fill="#b0aeac"/><rect x="38.51" y="492.96" width="7.7" height="7.7" fill="#979694"/><rect x="30.81" y="500.66" width="7.7" height="7.7" fill="#0e0e0e"/><rect x="38.51" y="500.66" width="7.7" height="7.7" fill="#eaeaea"/><rect x="107.83500000000001" y="492.96000000000004" width="15.405000000000001" height="15.405000000000001" fill="#000000"/><rect x="107.84" y="492.96" width="7.7" height="7.7" fill="#f7f6f3"/><rect x="115.54" y="492.96" width="7.7" height="7.7" fill="#bebebe"/><rect x="107.84" y="500.66" width="7.7" height="7.7" fill="#dfdddb"/><rect x="115.54" y="500.66" width="7.7" height="7.7" fill="#727170"/><rect x="184.86" y="492.96000000000004" width="15.405000000000001" height="15.405000000000001" fill="#000000"/><rect x="184.86" y="492.96" width="7.7" height="7.7" fill="#353535"/><rect x="192.56" y="492.96" width="7.7" height="7.7" fill="#b0aeac"/><rect x="184.86" y="500.66" width="7.7" height="7.7" fill="#9a9a9a"/><rect x="192.56" y="500.66" width="7.7" height="7.7" fill="#b7b7b7"/><rect x="261.885" y="492.96000000000004" width="15.405000000000001" height="15.405000000000001" fill="#000000"/><rect x="261.89" y="492.96" width="7.7" height="7.7" fill="#eeeeee"/><rect x="269.59" y="492.96" width="7.7" height="7.7" fill="#1f1f1f"/><rect x="261.89" y="500.66" width="7.7" height="7.7" fill="#323232"/><rect x="269.59" y="500.66" width="7.7" height="7.7" fill="#898887"/><rect x="338.91" y="492.96000000000004" width="15.405000000000001" height="15.405000000000001" fill="#000000"/><rect x="338.91" y="492.96" width="7.7" height="7.7" fill="#0e0e0e"/><rect x="346.61" y="492.96" width="7.7" height="7.7" fill="#636361"/><rect x="338.91" y="500.66" width="7.7" height="7.7" fill="#747371"/><rect x="346.61" y="500.66" width="7.7" height="7.7" fill="#c7c7c7"/><rect x="415.935" y="492.96000000000004" width="15.405000000000001" height="15.405000000000001" fill="#000000"/><rect x="415.94" y="492.96" width="7.7" height="7.7" fill="#dfdfdf"/><rect x="423.64" y="492.96" width="7.7" height="7.7" fill="#3f3e3d"/><rect x="415.94" y="500.66" width="7.7" height="7.7" fill="#686868"/><rect x="423.64" y="500.66" width="7.7" height="7.7" fill="#555453"/><rect x="492.96000000000004" y="492.96000000000004" width="15.405000000000001" height="15.405000000000001" fill="#000000"/><rect x="492.96" y="492.96" width="7.7" height="7.7" fill="#bab8b6"/><rect x="500.66" y="492.96" width="7.7" height="7.7" fill="#a6a4a3"/><rect x="492.96" y="500.66" width="7.7" height="7.7" fill="#454443"/><rect x="500.66" y="500.66" width="7.7" height="7.7" fill="#7f7e7c"/><rect x="569.9850000000001" y="492.96000000000004" width="15.405000000000001" height="15.405000000000001" fill="#000000"/><rect x="569.99" y="492.96" width="7.7" height="7.7" fill="#575757"/><rect x="577.69" y="492.96" width="7.7" height="7.7" fill="#818181"/><rect x="569.99" y="500.66" width="7.7" height="7.7" fill="#171717"/><rect x="577.69" y="500.66" width="7.7" height="7.7" fill="#d4d4d4"/><rect x="647.01" y="492.96000000000004" width="15.405000000000001" height="15.405000000000001" fill="#000000"/><rect x="647.01" y="492.96" width="7.7" height="7.7" fill="#6b6b69"/><rect x="654.71" y="492.96" width="7.7" height="7.7" fill="#bcbcbc"/><rect x="647.01" y="500.66" width="7.7" height="7.7" fill="#d4d2d0"/><rect x="654.71" y="500.66" width="7.7" height="7.7" fill="#2a2a2a"/><rect x="724.0350000000001" y="492.96000000000004" width="15.405000000000001" height="15.405000000000001" fill="#000000"/><rect x="724.04" y="492.96" width="7.7" height="7.7" fill="#444443"/><rect x="731.74" y="492.96" width="7.7" height="7.7" fill="#747474"/><rect x="724.04" y="500.66" width="7.7" height="7.7" fill="#323131"/><rect x="731.74" y="500.66" width="7.7" height="7.7" fill="#9c9a98"/><rect x="801.06" y="492.96000000000004" width="15.405000000000001" height="15.405000000000001" fill="#000000"/><rect x="801.06" y="492.96" width="7.7" height="7.7" fill="#0b0b0b"/><rect x="808.76" y="492.96" width="7.7" height="7.7" fill="#6a6a6a"/><rect x="801.06" y="500.66" width="7.7" height="7.7" fill="#444342"/><rect x="808.76" y="500.66" width="7.7" height="7.7" fill="#010101"/><rect x="878.085" y="492.96000000000004" width="15.405000000000001" height="15.405000000000001" fill="#000000"/><rect x="878.09" y="492.96" width="7.7" height="7.7" fill="#626160"/><rect x="885.79" y="492.96" width="7.7" height="7.7" fill="#5f5e5d"/><rect x="878.09" y="500.66" width="7.7" height="7.7" fill="#cfcecb"/><rect x="885.79" y="500.66" width="7.7" height="7.7" fill="#6b6b6b"/><rect x="30.810000000000002" y="569.9850000000001" width="15.405000000000001" height="15.405000000000001" fill="#000000"/><rect x="30.81" y="569.99" width="7.7" height="7.7" fill="#3d3d3c"/><rect x="38.51" y="569.99" width="7.7" height="7.7" fill="#e8e8e8"/><rect x="30.81" y="577.69" width="7.7" height="7.7" fill="#464646"/><rect x="38.51" y="577.69" width="7.7" height="7.7" fill="#6f6f6f"/><rect x="107.83500000000001" y="569.9850000000001" width="15.405000000000001" height="15.405000000000001" fill="#000000"/><rect x="107.84" y="569.99" width="7.7" height="7.7" fill="#c2c2c2"/><rect x="115.54" y="569.99" width="7.7" height="7.7" fill="#cccccc"/><rect x="107.84" y="577.69" width="7.7" height="7.7" fill="#acaaa8"/><rect x="115.54" y="577.69" width="7.7" height="7.7" fill="#474645"/><rect x="184.86" y="569.9850000000001" width="15.405000000000001" height="15.405000000000001" fill="#000000"/><rect x="184.86" y="569.99" width="7.7" height="7.7" fill="#6e6e6c"/><rect x="192.56" y="569.99" width="7.7" height="7.7" fill="#e8e8e8"/><rect x="184.86" y="577.69" width="7.7" height="7.7" fill="#6d6c6b"/><rect x="192.56" y="577.69" width="7.7" height="7.7" fill="#d6d4d1"/><rect x="261.885" y="569.9850000000001" width="15.405000000000001" height="15.405000000000001" fill="#000000"/><rect x="261.89" y="569.99" width="7.7" height="7.7" fill="#f0eeeb"/><rect x="269.59" y="569.99" width="7.7" height="7.7" fill="#2b2b2b"/><rect x="261.89" y="577.69" width="7.7" height="7.7" fill="#6d6c6b"/><rect x="269.59" y="577.69" width="7.7" height="7.7" fill="#797979"/><rect x="338.91" y="569.9850000000001" width="15.405000000000001" height="15.405000000000001" fill="#000000"/><rect x="338.91" y="569.99" width="7.7" height="7.7" fill="#252525"/><rect x="346.61" y="569.99" width="7.7" height="7.7" fill="#787776"/><rect x="338.91" y="577.69" width="7.7" height="7.7" fill="#9d9d9d"/><rect x="346.61" y="577.69" width="7.7" height="7.7" fill="#0b0b0b"/><rect x="415.935" y="569.9850000000001" width="15.405000000000001" height="15.405000000000001" fill="#000000"/><rect x="415.94" y="569.99" width="7.7" height="7.7" fill="#1b1b1b"/><rect x="423.64" y="569.99" width="7.7" height="7.7" fill="#4e4e4e"/><rect x="415.94" y="577.69" width="7.7" height="7.7" fill="#b2b2b2"/><rect x="423.64" y="577.69" width="7.7" height="7.7" fill="#232323"/><rect x="492.96000000000004" y="569.9850000000001" width="15.405000000000001" height="15.405000000000001" fill="#000000"/><rect x="492.96" y="569.99" width="7.7" height="7.7" fill="#5a5a5a"/><rect x="500.66" y="569.99" width="7.7" height="7.7" fill="#505050"/><rect x="492.96" y="577.69" width="7.7" height="7.7" fill="#949494"/><rect x="500.66" y="577.69" width="7.7" height="7.7" fill="#9b9b9b"/><rect x="569.9850000000001" y="569.9850000000001" width="15.405000000000001" height="15.405000000000001" fill="#000000"/><rect x="569.99" y="569.99" width="7.7" height="7.7" fill="#b1b0ad"/><rect x="577.69" y="569.99" width="7.7" height="7.7" fill="#504f4e"/><rect x="569.99" y="577.69" width="7.7" height="7.7" fill="#1c1c1c"/><rect x="577.69" y="577.69" width="7.7" height="7.7" fill="#ababab"/><rect x="647.01" y="569.9850000000001" width="15.405000000000001" height="15.405000000000001" fill="#000000"/><rect x="647.01" y="569.99" width="7.7" height="7.7" fill="#858585"/><rect x="654.71" y="569.99" width="7.7" height="7.7" fill="#2b2b2b"/><rect x="647.01" y="577.69" width="7.7" height="7.7" fill="#f7f5f2"/><rect x="654.71" y="577.69" width="7.7" height="7.7" fill="#7d7c7b"/><rect x="724.0350000000001" y="569.9850000000001" width="15.405000000000001" height="15.405000000000001" fill="#000000"/><rect x="724.04" y="569.99" width="7.7" height="7.7" fill="#706f6e"/><rect x="731.74" y="569.99" width="7.7" height="7.7" fill="#e5e3e0"/><rect x="724.04" y="577.69" width="7.7" height="7.7" fill="#1a1a1a"/><rect x="731.74" y="577.69" width="7.7" height="7.7" fill="#585858"/><rect x="801.06" y="569.9850000000001" width="15.405000000000001" height="15.405000000000001" fill="#000000"/><rect x="801.06" y="569.99" width="7.7" height="7.7" fill="#121212"/><rect x="808.76" y="569.99" width="7.7" height="7.7" fill="#4a4a49"/><rect x="801.06" y="577.69" width="7.7" height="7.7" fill="#eceae8"/><rect x="808.76" y="577.69" width="7.7" height="7.7" fill="#d3d1cf"/><rect x="878.085" y="569.9850000000001" width="15.405000000000001" height="15.405000000000001" fill="#000000"/><rect x="878.09" y="569.99" width="7.7" height="7.7" fill="#333333"/><rect x="885.79" y="569.99" width="7.7" height="7.7" fill="#d0d0d0"/><rect x="878.09" y="577.69" width="7.7" height="7.7" fill="#aaa9a7"/><rect x="885.79" y="577.69" width="7.7" height="7.7" fill="#3d3c3b"/></g></svg>