<?xml version="1.0" standalone="no"?>
<!DOCTYPE svg PUBLIC "-//W3C//DTD SVG 20010904//EN"
 "http://www.w3.org/TR/2001/REC-SVG-20010904/DTD/svg10.dtd">
<svg version="1.0" xmlns="http://www.w3.org/2000/svg"
 width="457.000000pt" height="668.000000pt" viewBox="0 0 457.000000 668.000000"
 preserveAspectRatio="xMidYMid meet">
<metadata>
Created by potrace 1.16, written by Peter Selinger 2001-2019
</metadata>
<g transform="translate(0.000000,668.000000) scale(0.100000,-0.100000)"
fill="#ffff" stroke="none">
<path d="M1128 6511 c-35 -31 -32 -17 -63 -321 -27 -272 -30 -377 -13 -398 14
-15 14 -37 -3 -219 -27 -297 -49 -637 -53 -808 -2 -82 -9 -296 -15 -475 -7
-179 -14 -398 -17 -487 l-6 -162 -116 -63 c-115 -62 -204 -96 -196 -74 1 6 71
232 154 501 83 270 158 510 166 534 19 61 18 94 -7 125 -25 32 -85 36 -118 9
-21 -18 -82 -206 -337 -1042 -46 -151 -85 -275 -86 -276 -2 -1 -59 -39 -128
-85 -69 -46 -128 -88 -132 -94 -4 -6 -8 -27 -8 -47 0 -73 70 -95 147 -46 52
33 55 33 43 1 -6 -14 -10 -37 -10 -52 0 -15 -16 -89 -35 -164 -19 -76 -37
-166 -41 -200 -5 -56 -4 -65 15 -82 28 -26 79 -25 101 1 9 11 28 81 44 154 15
74 39 161 52 194 14 33 44 121 67 195 l42 135 87 51 c48 28 96 61 105 72 10
11 54 40 99 65 l81 44 6 -375 c4 -206 7 -470 7 -586 0 -260 24 -628 56 -876
30 -227 146 -715 204 -854 111 -270 128 -304 227 -454 100 -152 139 -192 186
-192 28 0 40 6 53 25 22 34 8 85 -27 102 -30 15 -118 135 -184 253 -27 47 -58
101 -71 120 -32 50 -108 232 -132 315 -20 68 -109 430 -131 530 -21 99 -31
174 -51 380 -34 363 -41 564 -38 1125 l3 544 130 59 c72 32 155 70 185 84 70
32 378 153 391 153 5 0 9 -42 9 -94 0 -108 9 -138 53 -183 26 -28 38 -33 79
-33 64 0 98 19 141 78 48 64 131 142 190 177 69 40 256 107 279 99 10 -3 36
-29 57 -58 45 -60 71 -80 128 -95 95 -26 162 53 118 139 -9 16 -27 33 -41 36
-14 4 -38 25 -55 50 -116 169 -296 151 -676 -69 l-63 -36 0 35 c0 19 5 43 12
53 18 30 -2 63 -56 90 -60 29 -104 23 -140 -20 -14 -17 -26 -34 -26 -38 0 -4
-17 -13 -37 -20 -77 -27 -471 -184 -571 -228 -57 -24 -106 -42 -110 -39 -7 7
16 759 28 936 5 63 16 223 25 355 9 132 26 360 39 506 21 236 26 269 45 295
17 23 23 51 29 123 l7 93 34 12 c19 6 43 23 55 39 20 27 20 29 5 215 -12 144
-20 196 -34 219 -35 60 -105 70 -157 24z"/>
<path d="M4261 6347 c-26 -29 -111 -226 -111 -259 0 -60 -184 -439 -313 -645
-129 -206 -259 -407 -277 -428 -29 -34 -264 -386 -309 -463 -25 -43 -53 -78
-68 -85 -16 -7 -39 -38 -65 -91 -47 -92 -158 -426 -158 -473 0 -19 9 -43 24
-60 20 -23 32 -28 70 -28 70 0 86 23 145 208 28 87 69 198 91 247 27 59 40
100 38 123 -2 41 35 107 197 347 61 91 121 184 132 206 12 23 80 131 151 240
71 110 160 252 197 317 37 64 70 116 71 114 2 -2 -7 -53 -21 -113 -46 -203
-71 -372 -58 -393 9 -15 9 -38 -2 -104 -37 -230 -80 -674 -110 -1152 -10 -152
-15 -184 -33 -189 -9 -3 -57 -13 -107 -22 -71 -14 -96 -23 -117 -45 -37 -37
-38 -86 -1 -130 l27 -32 76 7 c41 3 86 9 99 12 l24 7 -6 -89 c-22 -295 -69
-1022 -82 -1269 -17 -308 -39 -588 -55 -695 -6 -36 -19 -160 -30 -276 -12
-124 -35 -281 -55 -380 -41 -198 -42 -210 -15 -224 32 -17 58 -3 70 38 43 153
87 456 109 742 6 74 18 218 26 320 8 102 22 313 30 470 8 157 22 377 30 490 8
113 24 345 35 515 11 171 23 324 25 341 l5 31 168 33 c92 18 179 39 193 46 56
28 63 124 12 164 -31 24 -59 25 -155 4 -40 -8 -102 -21 -138 -28 l-65 -13 7
66 c3 36 20 239 37 451 43 535 84 855 115 889 9 10 25 66 37 132 34 190 66
334 120 534 68 255 120 471 126 522 4 35 1 46 -21 67 -33 34 -84 35 -115 3z"/>
</g>
</svg>
