<svg xmlns="http://www.w3.org/2000/svg" xmlns:xlink="http://www.w3.org/1999/xlink" viewBox="0 0 346.90909090909093 344.72727272727275" width="120.90909090909093" height="120.72727272727275"><path d="M 112.636,139.898 C 106.091,161.352 105.841,161.284 99.545,182.807" stroke-width="4.358" stroke="black" fill="none" stroke-linecap="round"></path><path d="M 99.545,182.807 C 98.023,188.011 97.994,188.025 97.000,193.352" stroke-width="3.602" stroke="black" fill="none" stroke-linecap="round"></path><path d="M 121.727,99.170 C 121.182,94.807 121.150,89.159 120.636,90.443" stroke-width="5.241" stroke="black" fill="none" stroke-linecap="round"></path><path d="M 120.636,90.443 C 119.696,92.795 119.530,98.425 118.818,106.443" stroke-width="4.493" stroke="black" fill="none" stroke-linecap="round"></path><path d="M 118.818,106.443 C 117.530,120.970 117.421,120.972 116.636,135.534" stroke-width="2.471" stroke="black" fill="none" stroke-linecap="round"></path><path d="M 116.636,135.534 C 115.785,151.336 115.911,151.349 115.545,167.170" stroke-width="2.032" stroke="black" fill="none" stroke-linecap="round"></path><path d="M 115.545,167.170 C 115.365,174.986 115.413,174.990 115.545,182.807" stroke-width="2.587" stroke="black" fill="none" stroke-linecap="round"></path><path d="M 115.545,182.807 C 115.777,196.445 115.151,196.512 116.273,210.080" stroke-width="2.272" stroke="black" fill="none" stroke-linecap="round"></path><path d="M 116.273,210.080 C 117.151,220.694 117.083,220.828 119.545,231.170" stroke-width="2.367" stroke="black" fill="none" stroke-linecap="round"></path><path d="M 119.545,231.170 C 121.628,239.919 121.498,240.207 125.364,248.261" stroke-width="2.554" stroke="black" fill="none" stroke-linecap="round"></path><path d="M 125.364,248.261 C 128.043,253.843 133.488,260.944 132.636,258.443" stroke-width="2.998" stroke="black" fill="none" stroke-linecap="round"></path><path d="M 94.455,179.898 C 100.818,175.898 100.623,175.551 107.182,171.898" stroke-width="4.004" stroke="black" fill="none" stroke-linecap="round"></path><path d="M 107.182,171.898 C 114.987,167.551 114.991,167.459 123.182,163.898" stroke-width="2.954" stroke="black" fill="none" stroke-linecap="round"></path><path d="M 123.182,163.898 C 131.718,160.186 143.342,156.000 140.636,157.352" stroke-width="2.696" stroke="black" fill="none" stroke-linecap="round"></path><path d="M 139.182,157.716 C 139.545,161.898 138.365,164.947 139.909,166.080" stroke-width="5.520" stroke="black" fill="none" stroke-linecap="round"></path><path d="M 139.909,166.080 C 141.092,166.947 141.995,163.503 144.636,161.716" stroke-width="5.125" stroke="black" fill="none" stroke-linecap="round"></path><path d="M 144.636,161.716 C 148.176,159.321 148.278,159.159 152.273,157.716" stroke-width="4.661" stroke="black" fill="none" stroke-linecap="round"></path><path d="M 152.273,157.716 C 154.823,156.795 155.332,156.219 157.727,156.989" stroke-width="4.772" stroke="black" fill="none" stroke-linecap="round"></path><path d="M 157.727,156.989 C 160.423,157.855 159.668,160.488 162.455,160.989" stroke-width="4.940" stroke="black" fill="none" stroke-linecap="round"></path><path d="M 171.182,158.807 C 173.545,152.443 172.827,152.089 175.909,146.080" stroke-width="5.082" stroke="black" fill="none" stroke-linecap="round"></path><path d="M 175.909,146.080 C 180.100,137.907 180.835,138.272 185.727,130.443" stroke-width="3.138" stroke="black" fill="none" stroke-linecap="round"></path><path d="M 185.727,130.443 C 191.744,120.817 192.155,121.039 197.727,111.170" stroke-width="2.712" stroke="black" fill="none" stroke-linecap="round"></path><path d="M 197.727,111.170 C 200.882,105.584 200.465,105.357 203.182,99.534" stroke-width="3.174" stroke="black" fill="none" stroke-linecap="round"></path><path d="M 203.182,99.534 C 204.283,97.175 205.701,92.967 205.364,94.807" stroke-width="4.302" stroke="black" fill="none" stroke-linecap="round"></path><path d="M 205.364,94.807 C 203.337,105.876 200.941,109.920 198.455,125.352" stroke-width="3.716" stroke="black" fill="none" stroke-linecap="round"></path><path d="M 198.455,125.352 C 195.668,142.647 196.382,142.784 194.818,160.261" stroke-width="2.164" stroke="black" fill="none" stroke-linecap="round"></path><path d="M 194.818,160.261 C 193.291,177.330 193.494,177.349 192.273,194.443" stroke-width="1.946" stroke="black" fill="none" stroke-linecap="round"></path><path d="M 192.273,194.443 C 191.130,210.440 191.675,210.495 190.091,226.443" stroke-width="1.894" stroke="black" fill="none" stroke-linecap="round"></path><path d="M 190.091,226.443 C 188.948,237.950 189.369,238.108 186.818,249.352" stroke-width="2.211" stroke="black" fill="none" stroke-linecap="round"></path><path d="M 188.636,168.989 C 196.091,167.534 196.132,167.715 203.545,166.080" stroke-width="5.117" stroke="black" fill="none" stroke-linecap="round"></path><circle r="1.5" cx="169" cy="133.71591186523438" fill="black"></circle></svg>