<?xml version="1.0" encoding="utf-8"?>
<svg version="1.0" width="457.000000pt" height="668.000000pt" viewBox="0 0 457.000000 668.000000" preserveAspectRatio="xMidYMid meet" xmlns="http://www.w3.org/2000/svg">
  <g transform="translate(0.000000,668.000000) scale(0.100000,-0.100000)" fill="#ffff" stroke="none">
    <path d="M 1128 6511 C 1093 6480 1096 6494 1065 6190 C 1038 5918 1035 5813 1052 5792 C 1066 5777 1066 5755 1049 5573 C 1022 5276 1000 4936 996 4765 C 994 4683 987 4469 981 4290 C 974 4111 967 3892 964 3803 L 958 3641 L 842 3578 C 727 3516 638 3482 646 3504 C 647 3510 717 3736 800 4005 C 883 4275 958 4515 966 4539 C 985 4600 984 4633 959 4664 C 934 4696 874 4700 841 4673 C 820 4655 759 4467 504 3631 C 458 3480 419 3356 418 3355 C 416 3354 359 3316 290 3270 C 221 3224 162 3182 158 3176 C 154 3170 150 3149 150 3129 C 150 3056 220 3034 297 3083 C 349 3116 352 3116 340 3084 C 334 3070 330 3047 330 3032 C 330 3017 314 2943 295 2868 C 276 2792 258 2702 254 2668 C 249 2612 250 2603 269 2586 C 297 2560 348 2561 370 2587 C 379 2598 398 2668 414 2741 C 429 2815 453 2902 466 2935 C 480 2968 510 3056 533 3130 L 575 3265 L 662 3316 C 710 3344 758 3377 767 3388 C 777 3399 821 3428 866 3453 L 947 3497 L 953 3122 C 957 2916 960 2652 960 2536 C 960 2276 984 1908 1016 1660 C 1046 1433 1162 945 1220 806 C 1331 536 1348 502 1447 352 C 1547 200 1586 160 1633 160 C 1661 160 1673 166 1686 185 C 1708 219 1694 270 1659 287 C 1629 302 1541 422 1475 540 C 1448 587 1417 641 1404 660 C 1372 710 1296 892 1272 975 C 1252 1043 1163 1405 1141 1505 C 1120 1604 1110 1679 1090 1885 C 1056 2248 1049 2449 1052 3010 L 1055 3554 L 1185 3613 C 1257 3645 1340 3683 1370 3697 C 1440 3729 1748 3850 1761 3850 C 1766 3850 1770 3808 1770 3756 C 1770 3648 1779 3618 1823 3573 C 1849 3545 1861 3540 1902 3540 C 1966 3540 2000 3559 2043 3618 C 2091 3682 2174 3760 2233 3795 C 2302 3835 2489 3902 2512 3894 C 2522 3891 2548 3865 2569 3836 C 2614 3776 2640 3756 2697 3741 C 2792 3715 2859 3794 2815 3880 C 2806 3896 2788 3913 2774 3916 C 2760 3920 2736 3941 2719 3966 C 2603 4135 2423 4117 2043 3897 L 1980 3861 L 1980 3896 C 1980 3915 1985 3939 1992 3949 C 2010 3979 1990 4012 1936 4039 C 1876 4068 1832 4062 1796 4019 C 1782 4002 1770 3985 1770 3981 C 1770 3977 1753 3968 1733 3961 C 1656 3934 1262 3777 1162 3733 C 1105 3709 1056 3691 1052 3694 C 1045 3701 1068 4453 1080 4630 C 1085 4693 1096 4853 1105 4985 C 1114 5117 1138.811 5376.242 1151.811 5522.242 C 1172.811 5758.242 1170 5760 1189 5786 C 1206 5809 1212 5837 1218 5909 L 1225 6002 L 1259 6014 C 1278 6020 1302 6037 1314 6053 C 1334 6080 1334 6082 1319 6268 C 1307 6412 1299 6464 1285 6487 C 1250 6547 1180 6557 1128 6511 Z" style="paint-order: stroke; fill: rgb(231, 231, 231); stroke-width: 0px; stroke-miterlimit: 6;"/>
    <path d="M 4261 6347 C 4235 6318 4150 6121 4150 6088 C 4150 6028 3966 5649 3837 5443 C 3708 5237 3578 5036 3560 5015 C 3531 4981 3296 4629 3251 4552 C 3226 4509 3198 4474 3183 4467 C 3167 4460 3144 4429 3118 4376 C 3071 4284 2960 3950 2960 3903 C 2960 3884 2969 3860 2984 3843 C 3004 3820 3016 3815 3054 3815 C 3124 3815 3140 3838 3199 4023 C 3227 4110 3268 4221 3290 4270 C 3317 4329 3330 4370 3328 4393 C 3326 4434 3363 4500 3525 4740 C 3586 4831 3646 4924 3657 4946 C 3669 4969 3737 5077 3808 5186 C 3879 5296 3968 5438 4005 5503 C 4042 5567 4075 5619 4076 5617 C 4078 5615 4069 5564 4055 5504 C 4009 5301 3984 5132 3997 5111 C 4006 5096 4006 5073 3995 5007 C 3958 4777 3915 4333 3885 3855 C 3875 3703 3870 3671 3852 3666 C 3843 3663 3795 3653 3745 3644 C 3674 3630 3649 3621 3628 3599 C 3591 3562 3590 3513 3627 3469 L 3654 3437 L 3730 3444 C 3771 3447 3816 3453 3829 3456 L 3853 3463 L 3847 3374 C 3825 3079 3778 2352 3765 2105 C 3748 1797 3726 1517 3710 1410 C 3704 1374 3691 1250 3680 1134 C 3668 1010 3645 853 3625 754 C 3584 556 3583 544 3610 530 C 3642 513 3668 527 3680 568 C 3723 721 3767 1024 3789 1310 C 3795 1384 3807 1528 3815 1630 C 3823 1732 3837 1943 3845 2100 C 3853 2257 3867 2477 3875 2590 C 3883 2703 3899 2935 3910 3105 C 3921 3276 3933 3429 3935 3446 L 3940 3477 L 4108 3510 C 4200 3528 4287 3549 4301 3556 C 4357 3584 4364 3680 4313 3720 C 4282 3744 4254 3745 4158 3724 C 4118 3716 4056 3703 4020 3696 L 3955 3683 L 3962 3749 C 3965 3785 3982 3988 3999 4200 C 4042 4735 4083 5055 4114 5089 C 4123 5099 4139 5155 4151 5221 C 4185 5411 4217 5555 4271 5755 C 4339 6010 4391 6226 4397 6277 C 4401 6312 4398 6323 4376 6344 C 4343 6378 4292 6379 4261 6347 Z" style="paint-order: stroke; fill: rgb(231, 231, 231); stroke-width: 0px; stroke-miterlimit: 6;"/>
  </g>
  <path style="fill: rgb(216, 216, 216); stroke: rgb(0, 0, 0);" d="M 617.427 102.319"/>
</svg>